<mxfile host="app.diagrams.net" modified="2023-03-24T10:28:39.244Z" agent="Mozilla/5.0 (Windows NT 10.0; Win64; x64) AppleWebKit/537.36 (KHTML, like Gecko) Chrome/110.0.0.0 Safari/537.36 OPR/96.0.0.0" version="21.1.0" etag="zrCICP-3V3pyOzyjLB7V" type="github">
  <diagram name="PÃ¡gina-1" id="xasGz37oJKi1Bsmr6xXT">
    <mxGraphModel>
      <root>
        <mxCell id="0" />
        <mxCell id="1" parent="0" />
      </root>
    </mxGraphModel>
  </diagram>
</mxfile>
